<?xml version="1.0" encoding="utf-8"?>
<!-- Generator: Adobe Illustrator 27.5.0, SVG Export Plug-In . SVG Version: 6.00 Build 0)  -->
<svg version="1.1" id="Layer_1" xmlns="http://www.w3.org/2000/svg" xmlns:xlink="http://www.w3.org/1999/xlink" x="0px" y="0px"
	 viewBox="0 0 2122 2122" style="enable-background:new 0 0 2122 2122;" xml:space="preserve">
<g>
	<g>
		<path style="fill:#00528D;" d="M860.312,1859.096l-10.056-10.76c40.475-37.835,47.661-103.393,17.875-163.135
			c-30.477-61.134-104.846-119.142-222.338-98.596c-49.61,8.682-84.381,0.698-103.45-23.712
			c-22.636-28.977-15.602-74.596-5.855-96.542c12.588-28.304-6.668-52.764-12.876-59.587
			c-13.473-14.825-19.521-36.954-14.703-53.818c3.331-11.642,12.495-23.953,18.019-30.646c-5.999-7.797-15.17-23.536-11.652-43.745
			c2.978-17.13,11.379-25.935,18.796-33.703c4.589-4.816,8.56-8.974,11.12-14.825c-0.094-5.457-25.104-16.987-38.54-23.18
			c-14.796-6.819-30.103-13.872-42.655-22.191c-10.797-7.157-16.645-16.055-17.371-26.456
			c-1.885-26.841,30.765-55.782,65.327-86.425c8.524-7.557,17.335-15.368,25.104-22.762c43.612-41.537,42.979-67.874,41.281-138.265
			c-2.841-118.135,34.729-220.593,108.63-296.297c90.05-92.236,232.084-143.034,399.941-143.034
			c195.414,0,370.86,106.677,457.882,278.4c87.949,173.554,67.557,376.568-54.538,543.065
			c-145.458,198.345-163.93,283.795-148.961,390.004c7.408,52.595,25.722,108.982,54.437,167.587l-13.235,6.481
			c-29.391-60.001-48.158-117.876-55.789-172.011c-15.53-110.23,3.201-198.316,151.666-400.773
			c118.75-161.926,138.668-359.196,53.279-527.693c-84.497-166.746-254.908-270.33-444.74-270.33
			c-163.858,0-302.152,49.218-389.396,138.592c-71.075,72.801-107.191,171.576-104.443,285.654
			c1.705,70.895,2.482,103.249-45.856,149.285c-7.955,7.574-16.867,15.48-25.484,23.119c-28.96,25.672-61.781,54.771-60.408,74.369
			c0.395,5.675,3.935,10.649,10.819,15.209c11.609,7.69,26.384,14.502,40.676,21.09c28.779,13.268,53.632,24.722,45.871,42.464
			c-3.604,8.236-8.869,13.753-13.962,19.09c-6.826,7.154-12.725,13.336-14.933,26.057c-3.639,20.899,11.79,35.707,11.948,35.854
			l5.344,5.031l-5.021,5.366c-0.151,0.162-15.177,16.339-18.982,29.665c-3.388,11.829,1.532,28.966,11.437,39.857
			c7.719,8.491,31.642,39.029,15.436,75.481c-7.056,15.882-15.364,56.703,4,81.493c15.45,19.785,45.524,25.927,89.294,18.271
			c125.461-21.961,205.225,40.641,238.069,106.533C914.029,1744.249,905.592,1816.772,860.312,1859.096z"/>
	</g>
	<path style="opacity:0.6;fill:#E3E3E3;" d="M733.164,961.888c-10.713-13.103-17.271-29.481-17.748-47.287
		c1.489-0.007,2.982,0.027,4.475,0.1c2.165,0.088,4.155-0.751,5.572-2.168l81.985-81.98c1.245-1.245,2.048-2.937,2.139-4.838
		c0.091-1.894-0.541-3.654-1.654-5.015c-1.276-1.559-3.181-2.593-5.352-2.696c-12.821-0.597-25.548,1.273-37.516,5.479
		l63.188-63.183c0.561,0.165,1.12,0.339,1.677,0.524c0.041,0.015,0.082,0.029,0.124,0.043c0.041,0.014,0.082,0.026,0.123,0.04
		c12.053,4.047,21.978,12.224,27.96,23.033c1.345,2.428,3.859,3.798,6.452,3.798c1.205,0,2.428-0.295,3.561-0.921
		c0.175-0.098,0.345-0.201,0.51-0.31c0.415-0.275,0.793-0.586,1.134-0.927l81.983-81.978c2.264-2.263,2.862-5.834,1.234-8.776
		c-0.208-0.378-0.421-0.753-0.637-1.125c16.888,0.282,33.581,3.825,48.958,10.352l-1.85,1.849l-0.341,0.34
		c-9.131,9.131-15.902,20.166-19.874,32.516c-1.245,3.874,0.885,8.021,4.758,9.269c0.748,0.241,1.511,0.356,2.255,0.356
		c1.966,0,3.843-0.794,5.214-2.164l47.14-47.139c6.971-2.189,14.29-3.315,21.761-3.315c29.013,0,54.664,16.731,65.407,42.646
		c0.022,0.057,0.045,0.114,0.068,0.17c0.024,0.057,0.048,0.113,0.073,0.17c4.635,11.352,5.896,23.656,3.647,35.592
		c-0.752,3.999,1.881,7.851,5.877,8.603c0.46,0.086,0.921,0.125,1.37,0.125c1.476,0,2.884-0.445,4.065-1.229
		c0.411-0.273,0.794-0.586,1.144-0.935l24.595-24.595c21.83,13.509,37.427,35.204,42.408,60.421l-15.453,15.453
		c-2.658,2.657-2.893,6.927-0.491,9.866l0.133,0.158c1.457,1.683,3.51,2.546,5.575,2.546c1.704,0,3.421-0.59,4.816-1.795
		c4.741-4.097,10.227-7.219,16.312-9.274c0.071-0.021,0.141-0.044,0.211-0.066c0.072-0.024,0.144-0.049,0.215-0.075
		c4.937-1.614,10.006-2.435,15.07-2.435c25.727,0,46.659,20.047,46.659,44.691c0,1.959-0.175,4.018-0.556,6.476
		c-0.005,0.032-0.01,0.064-0.016,0.102c-0.047,0.3-0.074,0.601-0.084,0.901c-1.442,8.154-5.228,15.805-11.007,22.078
		c-2.755,2.992-2.568,7.649,0.424,10.409c1.417,1.305,3.205,1.949,4.989,1.949c1.895,0,3.779-0.725,5.21-2.155l16.852-16.852
		c11.824,10.668,18.766,25.655,18.766,41.644c0,7.386-1.478,14.617-4.397,21.505c-0.78,1.844-0.81,3.997,0.095,5.959
		c0.026,0.055,0.051,0.11,0.077,0.166c3.357,7.314,5.735,14.899,7.116,22.68l-70.082,70.086c-2.632,2.633-2.903,6.884-0.51,9.84
		c7.187,8.872,12.315,18.939,15.248,29.925c0.011,0.041,0.021,0.081,0.031,0.122c0.011,0.041,0.022,0.081,0.034,0.122
		c1.781,6.749,2.684,13.733,2.684,20.755c0,1.929-0.068,3.85-0.202,5.76c-0.264-0.309-0.528-0.619-0.793-0.93l-2.179-2.553
		l-3.356-0.029c-26.901-0.232-51.537-11.941-67.903-31.824l15.239-15.24c0.849-0.848,1.678-1.718,2.489-2.611
		c2.487-2.735,2.527-6.832,0.257-9.608c-0.229-0.28-0.482-0.547-0.757-0.797c-2.92-2.651-7.397-2.521-10.154,0.236l-4.466,4.466
		c-4.271,3.852-9.077,7.062-14.366,9.592c-0.179,0.068-0.356,0.142-0.531,0.225c-1.117,0.527-2.245,1.02-3.384,1.479
		c-0.802,0.323-1.61,0.629-2.423,0.918c-6.827,2.405-13.966,3.624-21.26,3.624c-13.995,0-27.574-4.65-38.46-12.98l10.708-10.708
		c3.955-3.956,7.62-8.179,10.975-12.651c2.073-2.767,1.908-6.519-0.188-9.082c-0.37-0.452-0.799-0.867-1.287-1.233
		c-2.976-2.227-7.079-1.865-9.631,0.687l-21.873,21.875c-1.693,1.262-3.43,2.481-5.209,3.653
		c-18.22,12.009-39.566,18.357-61.724,18.357c-33.825,0-65.068-14.628-85.971-40.194c-0.28-0.342-0.558-0.687-0.834-1.033
		l-0.22-0.277c-7.367-9.301-12.991-19.598-16.717-30.607c-0.293-0.866-0.731-1.643-1.279-2.312
		c-1.887-2.308-5.068-3.331-8.057-2.305c-1.11,0.376-2.07,0.989-2.846,1.764l-32.439,32.439
		c-9.877-4.124-18.526-10.584-25.13-18.661c-7.405-9.057-12.237-20.145-13.338-32.246c-0.002-0.034-0.005-0.067-0.009-0.101
		c-0.003-0.034-0.006-0.068-0.009-0.102c-0.91-10.414,1.005-20.896,5.544-30.316c1.283-2.664,0.82-5.717-0.935-7.864
		c-0.659-0.807-1.502-1.486-2.503-1.968c-2.896-1.394-6.258-0.72-8.411,1.433l-42.795,42.794c-0.586,0.012-1.173,0.018-1.76,0.018
		C772.178,992.601,748.444,980.576,733.164,961.888L733.164,961.888z M618.67,994.498c0.001,52.282,44.02,94.818,98.126,94.818
		c13,0,25.899-2.51,37.823-7.314c7.972,34.002,39.833,59.371,76.711,59.371c9.732,0,19.23-1.729,28.312-5.149
		c23.66,27.166,57.919,42.632,94.868,42.632c23.041,0,45.318-6.082,64.799-17.639c14.091,12.599,32.684,19.722,51.892,19.722
		c8.083,0,15.941-1.195,23.472-3.561c18.296,25.907,47.709,41.719,80.251,43.019c21.716,25.647,36.361,46.439,42.425,60.251
		c16.861,38.404,18.868,52.467,18.879,52.542l0.751,6.52h80.858l81.977-81.986l-0.493-7.83
		c-0.219-3.452-5.772-83.917-51.532-157.435c10.412-15.839,15.89-34.034,15.89-52.926c0-4.816-0.359-9.616-1.073-14.356
		c0,0,22.738-22.739,22.738-22.74c20.469-20.47,32.359-48.058,32.359-77.427c0-14.675-2.916-28.929-8.679-42.414
		c2.893-7.794,4.36-15.928,4.36-24.219c0-16.49-5.809-32.116-16.014-44.598c-5.163-6.315-11.451-11.825-18.682-16.236
		c0.08-1.234,0.119-2.473,0.119-3.717c0-13.891-4.95-26.684-13.232-36.813c-11.253-13.764-28.658-22.609-48.157-22.609
		c-3.782,0-7.559,0.348-11.3,1.037c-3.008-18.585-10.935-35.637-22.524-49.811c-15.622-19.106-37.898-32.983-63.749-38.338
		c-2.921-6.221-6.564-11.967-10.811-17.161c-15.845-19.379-40.098-31.072-66.657-31.072c-16.306,0-32.021,4.46-45.722,12.941
		c-19.865-9.842-42.065-15.024-64.486-15.024c-38.903,0-75.423,15.395-101.706,41.675l-23.767,23.766
		c-3.536-0.594-7.1-0.893-10.667-0.893c-17.583,0-33.942,7.11-45.653,18.821l-24.563,24.561
		c-18.61,5.969-35.048,16.181-48.228,29.359c0,0-81.978,81.971-81.986,81.978c-20.999,20.999-33.708,49.523-33.708,80.387
		c0,5.121,0.352,10.249,1.049,15.327l-16.594,16.592C628.869,946.023,618.67,969.63,618.67,994.498z"/>
	<g>
		<g>
			<path style="fill:#00528D;" d="M1338.945,1099.642c-1.511,0-3.035-0.46-4.344-1.425c-3.281-2.402-3.992-7.009-1.59-10.293
				c10.423-14.239,15.933-30.974,15.933-48.395c0-4.068,3.295-7.366,7.366-7.366c4.072,0,7.366,3.298,7.366,7.366
				c0,20.572-6.495,40.317-18.781,57.098C1343.455,1098.599,1341.218,1099.642,1338.945,1099.642z"/>
		</g>
		<g>
			<path style="fill:#00528D;" d="M1399.806,1257.724h-80.857l-0.748-6.524c-0.015-0.072-2.014-14.135-18.875-52.542
				c-6.063-13.807-20.709-34.599-42.425-60.245c-34.577-1.377-65.622-19.148-83.554-47.999c-2.143-3.457-1.087-7.995,2.367-10.143
				c3.474-2.157,8.006-1.082,10.149,2.367c15.839,25.489,43.719,40.86,74.578,41.126l3.359,0.029l2.179,2.554
				c24.147,28.273,39.907,50.61,46.841,66.389c11.782,26.852,16.666,42.392,18.666,50.258h52.344
				c-2.64-22.298-13.3-88.262-51.064-146.72c-2.208-3.417-1.23-7.977,2.187-10.182c3.424-2.212,7.97-1.23,10.185,2.19
				c48.201,74.614,53.955,158.097,54.178,161.614L1399.806,1257.724z"/>
		</g>
		<g>
			<path style="fill:#00528D;" d="M1153.184,1098.952c-4.072,0-7.366-3.298-7.366-7.366c0-4.068,3.294-7.366,7.366-7.366
				c8.171,0,16.141-1.525,23.694-4.536c8.747-3.492,16.314-8.711,22.485-15.504c2.741-3.014,7.402-3.223,10.401-0.5
				c3.014,2.734,3.237,7.395,0.504,10.405c-7.69,8.463-17.084,14.951-27.931,19.281
				C1173.045,1097.075,1163.233,1098.952,1153.184,1098.952z"/>
		</g>
		<g>
			<path style="fill:#00528D;" d="M1153.184,1098.952c-21.27,0-41.77-8.725-56.25-23.938c-2.806-2.945-2.691-7.61,0.259-10.412
				c2.942-2.806,7.596-2.697,10.416,0.255c11.71,12.307,28.326,19.364,45.575,19.364c9.502,0,18.608-2.025,27.067-6.017
				c3.675-1.73,8.063-0.162,9.804,3.517c1.734,3.679,0.166,8.067-3.517,9.804
				C1176.101,1096.452,1164.873,1098.952,1153.184,1098.952z"/>
		</g>
		<g>
			<path style="fill:#00528D;" d="M1036.491,1096.869c-4.071,0-7.366-3.297-7.366-7.366c0-4.067,3.295-7.366,7.366-7.366
				c22.155,0,43.504-6.348,61.731-18.353c10.285-6.783,19.162-15.105,26.391-24.74c2.438-3.255,7.056-3.913,10.307-1.472
				c3.259,2.439,3.92,7.057,1.475,10.312c-8.244,10.994-18.364,20.482-30.068,28.2
				C1085.684,1089.684,1061.537,1096.869,1036.491,1096.869z"/>
		</g>
		<g>
			<path style="fill:#00528D;" d="M1036.491,1096.869c-38.857,0-74.743-17.104-98.451-46.934
				c-8.481-10.668-14.962-22.504-19.249-35.185c-1.302-3.852,0.762-8.031,4.618-9.337c3.87-1.309,8.027,0.766,9.336,4.618
				c3.741,11.06,9.409,21.403,16.825,30.736c20.903,26.295,52.581,41.371,86.921,41.371c4.071,0,7.366,3.298,7.366,7.366
				C1043.857,1093.572,1040.562,1096.869,1036.491,1096.869z"/>
		</g>
		<g>
			<path style="fill:#00528D;" d="M913.317,1059.39c-4.071,0-7.366-3.298-7.366-7.366c0-4.068,3.295-7.366,7.366-7.366
				c9.488,0,18.717-2.022,27.428-6.007c3.704-1.704,8.071-0.057,9.761,3.636c1.69,3.701,0.065,8.071-3.633,9.765
				C936.22,1056.919,924.934,1059.39,913.317,1059.39z"/>
		</g>
		<g>
			<path style="fill:#00528D;" d="M913.317,1059.39c-40.453,0-74.865-30.517-78.339-69.471c-1.165-13.102,1.23-26.283,6.934-38.126
				c1.777-3.662,6.179-5.197,9.833-3.438c3.668,1.766,5.208,6.168,3.445,9.832c-4.553,9.448-6.466,19.968-5.538,30.423
				c2.805,31.43,30.772,56.049,63.665,56.049c4.072,0,7.366,3.298,7.366,7.366C920.682,1056.092,917.389,1059.39,913.317,1059.39z"
				/>
		</g>
		<g>
			<path style="fill:#00528D;" d="M798.782,1007.334c-4.071,0-7.366-3.298-7.366-7.366c0-4.068,3.295-7.366,7.366-7.366
				c14.013,0,27.881-3.406,40.094-9.851c3.611-1.903,8.049-0.518,9.956,3.075c1.899,3.6,0.518,8.056-3.079,9.951
				C831.424,1003.338,815.182,1007.334,798.782,1007.334z"/>
		</g>
		<g>
			<path style="fill:#00528D;" d="M798.782,1007.334c-54.106,0-98.127-42.536-98.127-94.819c0-4.067,3.294-7.366,7.366-7.366
				c4.071,0,7.366,3.298,7.366,7.366c0,44.162,37.411,80.088,83.396,80.088c4.072,0,7.366,3.298,7.366,7.366
				C806.147,1004.036,802.853,1007.334,798.782,1007.334z"/>
		</g>
		<g>
			<path style="fill:#00528D;" d="M708.02,919.88c-4.072,0-7.366-3.298-7.366-7.366c0-33.854,18.911-65.377,49.352-82.263
				c16.019-8.891,34.282-13.106,52.574-12.25c4.064,0.195,7.2,3.647,7.005,7.708c-0.194,4.067-3.539,7.139-7.71,7.009
				c-15.573-0.762-31.103,2.856-44.719,10.416c-25.766,14.292-41.77,40.875-41.77,69.38
				C715.386,916.583,712.091,919.88,708.02,919.88z"/>
		</g>
		<g>
			<path style="fill:#00528D;" d="M753.573,844.059c-3.395,0-6.452-2.363-7.193-5.816c-1.662-7.718-2.504-15.659-2.504-23.597
				c0-4.067,3.295-7.366,7.366-7.366c4.072,0,7.366,3.298,7.366,7.366c0,6.898,0.734,13.797,2.173,20.497
				c0.856,3.978-1.676,7.894-5.654,8.75C754.61,844.005,754.084,844.059,753.573,844.059z"/>
		</g>
		<g>
			<path style="fill:#00528D;" d="M751.243,822.012c-4.071,0-7.366-3.298-7.366-7.366c0-55.221,40.684-102.947,96.74-113.488
				c4.007-0.748,7.848,1.881,8.596,5.88c0.756,3.996-1.878,7.848-5.876,8.6c-49.093,9.229-84.728,50.87-84.728,99.009
				C758.608,818.714,755.314,822.012,751.243,822.012z"/>
		</g>
		<g>
			<path style="fill:#00528D;" d="M841.804,743.701c-3.216,0-6.172-2.129-7.086-5.384c-2.927-10.455-2.862-21.515,0.187-31.98
				c7.682-26.384,32.815-44.813,61.12-44.813c4.071,0,7.366,3.298,7.366,7.366c0,4.068-3.295,7.366-7.366,7.366
				c-21.795,0-41.115,14.063-46.978,34.2c-2.28,7.826-2.331,16.087-0.144,23.892c1.1,3.916-1.187,7.981-5.107,9.077
				C843.134,743.611,842.465,743.701,841.804,743.701z"/>
		</g>
		<g>
			<path style="fill:#00528D;" d="M946.571,705.761c-2.596,0-5.107-1.37-6.452-3.798c-6.006-10.851-15.975-19.048-28.089-23.079
				c-5.244-1.744-10.631-2.63-16.004-2.63c-4.071,0-7.366-3.298-7.366-7.366c0-4.067,3.295-7.366,7.366-7.366
				c6.955,0,13.912,1.137,20.659,3.385c15.63,5.205,28.527,15.832,36.325,29.919c1.971,3.561,0.684,8.042-2.877,10.013
				C949.002,705.466,947.779,705.761,946.571,705.761z"/>
		</g>
		<g>
			<path style="fill:#00528D;" d="M914.353,679.262c-1.223,0-2.468-0.306-3.611-0.95c-3.546-1.999-4.797-6.491-2.797-10.034
				c24.801-43.981,72.398-71.304,124.224-71.304c4.071,0,7.366,3.298,7.366,7.366c0,4.067-3.295,7.366-7.366,7.366
				c-46.517,0-89.202,24.449-111.392,63.81C919.424,677.913,916.928,679.262,914.353,679.262z"/>
		</g>
		<g>
			<path style="fill:#00528D;" d="M1097.086,627.878c-1.173,0-2.359-0.281-3.467-0.871c-18.71-10.013-39.957-15.303-61.45-15.303
				c-4.071,0-7.366-3.298-7.366-7.366c0-4.068,3.295-7.366,7.366-7.366c23.91,0,47.56,5.895,68.399,17.044
				c3.589,1.921,4.942,6.384,3.021,9.97C1102.257,626.469,1099.718,627.878,1097.086,627.878z"/>
		</g>
		<g>
			<path style="fill:#00528D;" d="M1068.263,666.408c-0.748,0-1.503-0.115-2.259-0.356c-3.87-1.248-5.999-5.398-4.755-9.268
				c5.532-17.192,16.479-31.826,31.65-42.328c14.566-10.074,31.671-15.4,49.474-15.4c4.071,0,7.366,3.298,7.366,7.366
				c0,4.067-3.295,7.366-7.366,7.366c-14.796,0-29.002,4.42-41.087,12.782c-12.487,8.639-21.486,20.648-26.01,34.725
				C1074.269,664.415,1071.377,666.408,1068.263,666.408z"/>
		</g>
		<g>
			<path style="fill:#00528D;" d="M1218.813,701.096c-0.453,0-0.913-0.04-1.374-0.126c-3.992-0.755-6.625-4.607-5.87-8.603
				c2.259-11.987,0.972-24.352-3.712-35.76c-10.696-26.01-36.404-42.82-65.485-42.82c-4.071,0-7.366-3.298-7.366-7.366
				c0-4.068,3.295-7.366,7.366-7.366c35.081,0,66.133,20.392,79.109,51.952c5.769,14.052,7.352,29.294,4.561,44.087
				C1225.381,698.633,1222.288,701.096,1218.813,701.096z"/>
		</g>
		<g>
			<path style="fill:#00528D;" d="M1299.8,752.02c-3.812,0-7.034-2.935-7.336-6.798c-3.266-42.137-35.764-76.739-79.038-84.152
				c-4.007-0.686-6.704-4.495-6.013-8.506c0.69-4.006,4.453-6.707,8.502-6.017c49.934,8.557,87.453,48.665,91.237,97.538
				c0.317,4.057-2.719,7.6-6.776,7.913C1300.182,752.013,1299.987,752.02,1299.8,752.02z"/>
		</g>
		<g>
			<path style="fill:#00528D;" d="M1280.789,762.78c-2.065,0-4.114-0.863-5.568-2.546c-2.661-3.075-2.331-7.729,0.748-10.39
				c6.265-5.42,13.501-9.516,21.514-12.178c6.502-2.166,13.207-3.262,19.932-3.262c4.072,0,7.366,3.298,7.366,7.366
				c0,4.067-3.294,7.366-7.366,7.366c-5.143,0-10.279,0.845-15.285,2.507c-6.172,2.053-11.732,5.193-16.523,9.344
				C1284.213,762.19,1282.501,762.78,1280.789,762.78z"/>
		</g>
		<g>
			<path style="fill:#00528D;" d="M1357.827,835.74c-1.784,0-3.575-0.644-4.993-1.95c-2.992-2.755-3.179-7.412-0.424-10.405
				c7.517-8.167,11.66-18.665,11.66-29.559c0-24.643-20.932-44.691-46.654-44.691c-4.071,0-7.366-3.298-7.366-7.366
				c0-4.068,3.295-7.366,7.366-7.366c33.851,0,61.386,26.657,61.386,59.422c0,14.602-5.524,28.646-15.559,39.536
				C1361.79,834.941,1359.812,835.74,1357.827,835.74z"/>
		</g>
		<g>
			<path style="fill:#00528D;" d="M1370.788,808.902c-0.374,0-0.748-0.029-1.129-0.086c-4.021-0.619-6.776-4.377-6.157-8.398
				c0.388-2.525,0.568-4.618,0.568-6.592c0-4.068,3.295-7.366,7.366-7.366c4.072,0,7.366,3.298,7.366,7.366
				c0,2.74-0.237,5.549-0.741,8.829C1377.5,806.298,1374.364,808.902,1370.788,808.902z"/>
		</g>
		<g>
			<path style="fill:#00528D;" d="M1406.013,865.742c-4.072,0-7.366-3.298-7.366-7.366c0-21.007-11.977-40.281-31.261-50.305
				c-3.611-1.873-5.013-6.323-3.143-9.93c1.884-3.611,6.315-5.024,9.933-3.14c24.183,12.567,39.202,36.851,39.202,63.375
				C1413.379,862.444,1410.084,865.742,1406.013,865.742z"/>
		</g>
		<g>
			<path style="fill:#00528D;" d="M1401.036,890.123c-0.964,0-1.935-0.191-2.87-0.586c-3.747-1.586-5.496-5.909-3.913-9.653
				c2.913-6.891,4.395-14.127,4.395-21.508c0-4.067,3.294-7.366,7.366-7.366c4.071,0,7.366,3.298,7.366,7.366
				c0,9.365-1.87,18.533-5.56,27.248C1406.632,888.432,1403.899,890.123,1401.036,890.123z"/>
		</g>
		<g>
			<path style="fill:#00528D;" d="M1410.336,932.371c-4.072,0-7.366-3.298-7.366-7.366c0-13.595-2.899-26.772-8.625-39.166
				c-1.705-3.69-0.094-8.068,3.603-9.772c3.712-1.715,8.071-0.09,9.776,3.6c6.617,14.339,9.977,29.595,9.977,45.337
				C1417.702,929.073,1414.407,932.371,1410.336,932.371z"/>
		</g>
		<g>
			<path style="fill:#00528D;" d="M1353.36,1024.137c-2.669,0-5.236-1.449-6.545-3.977c-1.87-3.614-0.46-8.06,3.15-9.93
				c32.693-16.929,53.006-49.585,53.006-85.223c0-4.067,3.294-7.366,7.366-7.366c4.071,0,7.366,3.298,7.366,7.366
				c0,41.166-23.356,78.837-60.962,98.308C1355.655,1023.874,1354.496,1024.137,1353.36,1024.137z"/>
		</g>
		<g>
			<path style="fill:#00528D;" d="M1356.309,1046.896c-4.071,0-7.366-3.298-7.366-7.366c0-7.06-0.913-14.084-2.711-20.871
				c-2.935-11.041-8.078-21.151-15.285-30.049c-2.561-3.161-2.072-7.797,1.086-10.358c3.18-2.571,7.805-2.071,10.366,1.086
				c8.524,10.52,14.602,22.479,18.076,35.541c2.121,8.023,3.2,16.317,3.2,24.651
				C1363.675,1043.598,1360.381,1046.896,1356.309,1046.896z"/>
		</g>
	</g>
	<g>
		<path style="fill:#22A651;" d="M1098.583,919.021c3.205-72.592,94.486-135.213,202.568-77.183
			C1243.899,947.554,1175.194,957.843,1098.583,919.021z"/>
		<path style="fill:#22A651;" d="M1039.941,895.009c-29.961-12.681-73.006-45.299-89.647-88.972
			c-11.948-31.406-11.713-76.089-8.07-109.199C1044.613,722.512,1108.511,816.806,1039.941,895.009z"/>
		<path style="fill:#22A651;" d="M1162.121,779.386c2.685-77.723,93.589-169.517,237.466-156.512
			C1355.565,731.549,1277.71,802.026,1162.121,779.386z"/>
		<path style="fill:#22A651;" d="M1106.467,766.172c-92.41-57.919-106.8-130.4-98.143-220.566
			C1117.456,582.404,1182.591,693.231,1106.467,766.172z"/>
		<path style="fill:#22A651;" d="M1183.242,631.939c-61.023-92.945-41.225-192.105,4.307-292.156
			C1283.744,436.108,1277.771,582.151,1183.242,631.939z"/>
		<path style="fill:#1E994C;" d="M1356.458,648.229c-38.785,19.919-83.495,43.922-123.492,70.831
			c-39.946,27.017-79.991,55.56-107.81,87.297c29.096-66.703,43.81-97.271,59.703-167.946
			c11.453-57.475,19.221-129.917,14.989-254.388c-0.164-3.835-4.691-4.075-4.545-0.289c1.542,34.681,0.192,61.666-2.16,131.082
			c-8.474,99.189-21.132,161.894-80.943,288.346c-3.255-39.685-12.416-73.874-25.839-108.941
			c-14.519-35.372-32.408-71.416-52.056-113.665c-1.43-2.831-5.535-1.437-4.142,1.419c31.01,69.531,77.201,153.391,73.618,238.391
			c-21.602,40.253-39.614,78.491-54.479,106.028c-4.24-23.237-22.607-71.712-40.567-113.726
			c-17.338-42.027-37.392-79.016-41.375-85.032c-1.363-2.523-5.39-0.999-4.058,1.559c21.906,38.925,50.111,107.898,65.821,153.886
			c7.294,21.645,11.906,41.109,14.363,55.408c-9.986,21.831-13.459,36.404-6.197,39.45c10.026,4.201,12.502-8.784,17.773-21.044
			c0.42-0.193,0.86-0.491,1.246-0.931c64.834-74.161,184.908-90.584,208.997-99.737c2.728-0.552,1.992-5.211-0.823-4.679
			c-32.598,6.49-71.731,16.534-107.159,30.665c-35.861,14.038-67.884,32.225-93.07,53.952c15.4-32.434,9.446-19.461,23.697-51.486
			c18.636-40.773,29.315-79.779,136.103-151.754c44.44-31.77,94.786-60.207,134.126-80.201
			C1361.411,651.02,1359.77,646.536,1356.458,648.229z"/>
	</g>
	<g>
		<path style="fill:#F76382;" d="M969.011,437.009c-19.83-26.052-21.287-79.108-21.287-79.108s50.755,15.53,70.585,41.582
			C1053.543,445.769,1004.261,483.32,969.011,437.009z"/>
		<path style="fill:#F7859D;" d="M1026.88,379.022c-32.478,4.149-79.153-21.116-79.153-21.116s38.829-36.191,71.305-40.337
			C1076.729,310.197,1084.609,371.65,1026.88,379.022z"/>
		<path style="fill:#F76382;" d="M1005.594,299.915c-12.645,30.2-57.861,57.989-57.861,57.989s-11.932-51.718,0.717-81.918
			C970.918,222.332,1028.073,246.232,1005.594,299.915z"/>
		<path style="fill:#F7859D;" d="M926.441,278.792c19.832,26.058,21.289,79.107,21.289,79.107s-50.753-15.524-70.585-41.582
			C841.914,270.037,891.19,232.489,926.441,278.792z"/>
		<path style="fill:#F76382;" d="M868.577,336.79c32.478-4.156,79.147,21.112,79.147,21.112s-38.823,36.188-71.304,40.332
			C818.726,405.603,810.847,344.155,868.577,336.79z"/>
		<path style="fill:#F7859D;" d="M889.863,415.891c12.641-30.204,57.861-57.989,57.861-57.989s11.931,51.718-0.72,81.92
			C924.538,493.474,867.386,469.573,889.863,415.891z"/>
		<path style="fill:#DB0B36;" d="M936.408,366.516c-4.757-6.245-3.548-15.171,2.702-19.931c6.252-4.754,15.179-3.544,19.933,2.702
			c4.756,6.251,3.549,15.176-2.703,19.937C950.091,373.982,941.165,372.766,936.408,366.516z"/>
	</g>
	<g>
		<path style="fill:#F76382;" d="M1317.481,1073.063c6.74-25.135,39.392-51.849,39.392-51.849s14.913,39.465,8.174,64.601
			C1353.075,1130.475,1305.501,1117.746,1317.481,1073.063z"/>
		<path style="fill:#F7859D;" d="M1382.079,1081.256c-18.4-18.405-25.208-60.037-25.208-60.037s41.636,6.818,60.033,25.222
			C1449.594,1079.136,1414.784,1113.971,1382.079,1081.256z"/>
		<path style="fill:#F76382;" d="M1421.471,1029.408c-25.137,6.732-64.596-8.187-64.596-8.187s26.718-32.648,51.857-39.38
			C1453.395,969.882,1466.156,1017.44,1421.471,1029.408z"/>
		<path style="fill:#F7859D;" d="M1396.267,969.367c-6.741,25.14-39.39,51.849-39.39,51.849s-14.915-39.46-8.174-64.6
			C1360.674,911.961,1408.243,924.689,1396.267,969.367z"/>
		<path style="fill:#F76382;" d="M1331.665,961.183c18.405,18.402,25.208,60.032,25.208,60.032s-41.632-6.816-60.029-25.225
			C1264.157,963.296,1298.964,928.465,1331.665,961.183z"/>
		<path style="fill:#F7859D;" d="M1292.277,1013.028c25.138-6.737,64.596,8.187,64.596,8.187s-26.718,32.648-51.86,39.378
			C1260.354,1072.554,1247.594,1024.996,1292.277,1013.028z"/>
		<path style="fill:#DB0B36;" d="M1345.955,1018.287c1.613-6.027,7.814-9.607,13.846-7.991c6.029,1.62,9.609,7.821,7.993,13.847
			c-1.618,6.03-7.817,9.611-13.85,7.994C1347.913,1030.522,1344.337,1024.318,1345.955,1018.287z"/>
	</g>
	<g>
		<path style="fill:#00528D;" d="M750.531,483.33c-21.205,0-38.461-17.256-38.461-38.465s17.256-38.465,38.461-38.465
			c21.212,0,38.468,17.256,38.468,38.465S771.743,483.33,750.531,483.33z M750.531,421.131c-13.084,0-23.73,10.646-23.73,23.734
			s10.646,23.734,23.73,23.734c13.091,0,23.737-10.646,23.737-23.734S763.622,421.131,750.531,421.131z"/>
	</g>
	<g>
		<path style="fill:#00528D;" d="M1547.666,614.276c-43.777,0-79.39-35.613-79.39-79.386c0-43.774,35.613-79.387,79.39-79.387
			c43.77,0,79.383,35.613,79.383,79.387C1627.049,578.663,1591.436,614.276,1547.666,614.276z M1547.666,470.235
			c-35.656,0-64.658,29.003-64.658,64.655c0,35.652,29.002,64.655,64.658,64.655c35.649,0,64.652-29.002,64.652-64.655
			C1612.318,499.237,1583.315,470.235,1547.666,470.235z"/>
	</g>
	<g>
		<path style="fill:#00528D;" d="M472.274,905.631c-32.944,0-59.745-26.802-59.745-59.746c0-32.94,26.802-59.742,59.745-59.742
			c32.937,0,59.739,26.802,59.739,59.742C532.013,878.83,505.212,905.631,472.274,905.631z M472.274,800.875
			c-24.823,0-45.014,20.191-45.014,45.01c0,24.82,20.191,45.015,45.014,45.015c24.816,0,45.007-20.195,45.007-45.015
			C517.282,821.066,497.091,800.875,472.274,800.875z"/>
	</g>
</g>
</svg>
